<svg xmlns="http://www.w3.org/2000/svg" width="140" height="26.97815" viewBox="0 0 140 26.97815"><defs><style>.a{fill:#26262c;}</style></defs><title>Asset 3</title><path class="a" d="M1.7927,13.71677a.64216.64216,0,0,1-.187.46023.60278.60278,0,0,1-.45208.19481.60851.60851,0,0,1-.45988-.18735.64812.64812,0,0,1-.1792-.46769.89521.89521,0,0,1,.17139-.51384,1.67783,1.67783,0,0,1,.46769-.44461,2.53607,2.53607,0,0,1,.6547-.3041,2.40427,2.40427,0,0,1,.70153-.10861,2.21,2.21,0,0,1,1.57413.51385,2.09119,2.09119,0,0,1,.54575,1.59041v3.41366A.96115.96115,0,0,0,4.7,18.3a.23893.23893,0,0,0,.226.12489.33386.33386,0,0,0,.24912-.17173.72109.72109,0,0,1,.14051-.15612.24863.24863,0,0,1,.15578-.06177.32117.32117,0,0,1,.20262.093.16949.16949,0,0,1,.04684.1249.31014.31014,0,0,1-.1249.26473,1.60171,1.60171,0,0,1-.522.28849,1.92448,1.92448,0,0,1-.538.07059.89263.89263,0,0,1-.64689-.2498,1.19936,1.19936,0,0,1-.335-.65435,3.929,3.929,0,0,1-1.04433.70934,2.486,2.486,0,0,1-.99783.226A1.56837,1.56837,0,0,1,.42866,18.526,1.33692,1.33692,0,0,1,0,17.4739a1.57194,1.57194,0,0,1,.28849-.93538,2.08788,2.08788,0,0,1,.78706-.65435,4.4643,4.4643,0,0,1,1.12239-.3747,6.77239,6.77239,0,0,1,1.325-.12422v-1.528a1.067,1.067,0,0,0-.25726-.79487,1.0441,1.0441,0,0,0-.75584-.24912,1.61948,1.61948,0,0,0-.63128.10861.831.831,0,0,0-.36655.26541A.57733.57733,0,0,1,1.7927,13.71677Zm1.73024,2.12056a3.43572,3.43572,0,0,0-1.79269.3584,1.19126,1.19126,0,0,0-.561,1.07521.96007.96007,0,0,0,.24946.68626.786.786,0,0,0,.59225.26473,1.70542,1.70542,0,0,0,.6625-.15612,3.22968,3.22968,0,0,0,.84951-.59191Z"/><path class="a" d="M11.13766,12.88322a2.06518,2.06518,0,0,1,1.364-.53761,1.71243,1.71243,0,0,1,1.46517.62313,2.74259,2.74259,0,0,1,.46769,1.68341v3.56978q.5147,0,.84171-.01561h.15612q.23368,0,.23351.281,0,.26474-.23351.26473a.69069.69069,0,0,1-.1249-.01561q-.18682-.01629-.4833-.03869-.2963-.02341-.91942-.02376h-.06245q-.60786,0-.90416.02376-.2963.0224-.4833.03869a.6875.6875,0,0,1-.12456.01561q-.23367,0-.23384-.26473,0-.281.23384-.281h.15578q.34263.01629.84171.01561V14.12269a1.51938,1.51938,0,0,0-.21043-.9123.86136.86136,0,0,0-.72461-.27287,1.50184,1.50184,0,0,0-.77959.23418,2.44092,2.44092,0,0,0-.70154.65436,3.48632,3.48632,0,0,0-.67031,2.05811v2.33776q.5147,0,.84205-.01561h.15578q.23367,0,.23384.281,0,.26474-.23384.26473a.69059.69059,0,0,1-.1249-.01561q-.18684-.01629-.483-.03869-.2963-.02341-.91977-.02376H9.64906q-.62364,0-.912.02376-.28866.0224-.47515.03869a.69419.69419,0,0,1-.1249.01561q-.23367,0-.23385-.26473,0-.281.23385-.281h.14051q.34262.01629.85732.01561V13.078q-.37419,0-.52234.00747c-.09876.00543-.21042.01357-.335.02375a.97006.97006,0,0,1-.14051.01562q-.23367,0-.23385-.28035,0-.26574.23385-.2654h.14051q.34262.01629.85732.01561.15526,0,.5298-.03123c.187-.02036.30138-.03122.34313-.03122q.23367,0,.2335.281v1.29378A3.04812,3.04812,0,0,1,11.13766,12.88322Z"/><path class="a" d="M21.16821,12.57912q.23418,0,.23384.2654,0,.26474-.23384.26473c-.03123,0-.11947-.00543-.26507-.01561q-.701-.01527-1.26256-.01561v4.69183q0,.62415.46769.62381a.55817.55817,0,0,0,.45988-.203A.89448.89448,0,0,0,20.763,17.723c.03123-.19685.11947-.296.26507-.296.14527,0,.21824.08349.21824.24911a1.08407,1.08407,0,0,1-.374.79555,1.44877,1.44877,0,0,1-1.04466.3584,1.201,1.201,0,0,1-1.27817-1.325V13.078q-.54576,0-.96627.01561c-.08349.01018-.14051.01561-.17139.01561q-.23419,0-.23385-.26473,0-.26574.23385-.2654a2.155,2.155,0,0,0,1.15327-.2179,1.475,1.475,0,0,0,.45208-.951,4.78371,4.78371,0,0,1,.20262-.82609.2418.2418,0,0,1,.21823-.17174q.20262,0,.20262.45208v1.73025Q20.42,12.57946,21.16821,12.57912Z"/><path class="a" d="M26.62436,12.88322a2.09337,2.09337,0,0,1,1.3715-.53761,1.71313,1.71313,0,0,1,1.46552.62313,2.74489,2.74489,0,0,1,.46769,1.68341v3.56978q.51419,0,.85731-.01561h.15579q.23367,0,.23384.281,0,.26474-.23384.26473a.69059.69059,0,0,1-.1249-.01561q-.18684-.01629-.483-.03869-.29629-.02341-.91977-.02376h-.06245q-.62364,0-.91977.02376-.29628.0224-.483.03869a.69409.69409,0,0,1-.1249.01561q-.23367,0-.23384-.26473,0-.281.23384-.281h.15613q.34262.01629.85731.01561V14.12269a1.52185,1.52185,0,0,0-.21042-.9123.86254.86254,0,0,0-.72495-.27287,1.5019,1.5019,0,0,0-.7796.23418,2.44,2.44,0,0,0-.7012.65436,3.59985,3.59985,0,0,0-.49891.951,3.30634,3.30634,0,0,0-.187,1.10712v2.33776q.51419,0,.85732-.01561h.14017q.23418,0,.23385.281,0,.26474-.23385.26473a.6876.6876,0,0,1-.12456-.01561q-.18735-.01629-.47549-.03869-.28866-.02341-.912-.02376h-.06211q-.62364,0-.91977.02376-.2963.0224-.4833.03869a.69453.69453,0,0,1-.12456.01561q-.23418,0-.23384-.26473,0-.281.23384-.281h.15578q.34263.01629.84171.01561V9.18107q-.35892,0-.51453.00747c-.10385.00543-.21314.01357-.32718.02375a1.31846,1.31846,0,0,1-.15578.01562q-.23418,0-.23384-.281,0-.26473.23384-.26473h.15578q.34263.01629.84171.01561.14051,0,.54541-.03123c.18735-.02036.29629-.03122.32752-.03122q.23367,0,.23384.281v5.19074A2.88248,2.88248,0,0,1,26.62436,12.88322Z"/><path class="a" d="M36.24152,12.66464a1.81315,1.81315,0,0,1,1.04432-.319,1.28231,1.28231,0,0,1,.842.25726.80356.80356,0,0,1,.31157.64689.86788.86788,0,0,1-.19481.5763.6285.6285,0,0,1-.50672.23418.69255.69255,0,0,1-.7012-.70187.63472.63472,0,0,1,.187-.46769.80936.80936,0,0,0-.21823-.03122,1.25312,1.25312,0,0,0-1.01344.69373A3.64415,3.64415,0,0,0,35.54,15.5407v2.68123q.5147,0,.84205-.01561h.15578q.23367,0,.23384.281,0,.26474-.23384.26473a.69059.69059,0,0,1-.1249-.01561q-.18684-.01629-.483-.03869-.2963-.02341-.91977-.02376h-.06245q-.62364,0-.912.02376-.28866.0224-.47515.03869a.69419.69419,0,0,1-.1249.01561q-.23369,0-.23385-.26473,0-.281.23385-.281h.14051q.34261.01629.85732.01561V13.078q-.37419,0-.52234.00747c-.09876.00543-.21042.01357-.335.02375a.97006.97006,0,0,1-.14051.01562q-.23369,0-.23385-.28035,0-.26574.23385-.2654h.14051q.34261.01629.85732.01561.15526,0,.5298-.03123c.187-.02036.30138-.03122.34313-.03122q.23367,0,.2335.281v.77926A1.92294,1.92294,0,0,1,36.24152,12.66464Z"/><path class="a" d="M46.33451,16.9906a3.12477,3.12477,0,0,1-.63909,1.05213,2.92384,2.92384,0,0,1-.95065.68558,2.72113,2.72113,0,0,1-1.13019.24166,2.75724,2.75724,0,0,1-1.1458-.24166,2.89147,2.89147,0,0,1-.94285-.67743,3.18048,3.18048,0,0,1-.63942-1.06028A3.78875,3.78875,0,0,1,40.653,15.65a3.70913,3.70913,0,0,1,.23351-1.34062,3.298,3.298,0,0,1,.63942-1.05213,2.75168,2.75168,0,0,1,.94285-.67811,2.839,2.839,0,0,1,1.1458-.23351,2.78477,2.78477,0,0,1,1.138.23351,2.85883,2.85883,0,0,1,.94284.67811,3.12486,3.12486,0,0,1,.63909,1.05213,4.08856,4.08856,0,0,1,0,2.68124Zm-1.42615-3.50733a1.418,1.418,0,0,0-1.29378-.63875,1.4329,1.4329,0,0,0-1.30939.63875A4.25562,4.25562,0,0,0,41.89995,15.65a4.2539,4.2539,0,0,0,.40524,2.16671,1.43333,1.43333,0,0,0,1.30939.63943,1.41841,1.41841,0,0,0,1.29378-.63943A4.25753,4.25753,0,0,0,45.3136,15.65,4.25925,4.25925,0,0,0,44.90836,13.48327Z"/><path class="a" d="M105.52,12.88322a2.09253,2.09253,0,0,1,1.37116-.53761,1.71271,1.71271,0,0,1,1.46552.62313,2.74482,2.74482,0,0,1,.46769,1.68341v3.56978q.51418,0,.85732-.01561h.15612q.23316,0,.2335.281,0,.26474-.2335.26473a.68712.68712,0,0,1-.1249-.01561q-.18735-.01629-.4833-.03869-.2963-.02341-.91977-.02376h-.06245q-.62313,0-.91976.02376-.2963.0224-.48263.03869a.694.694,0,0,1-.12489.01561q-.2342,0-.23419-.26473,0-.281.23419-.281h.15612q.34211.01629.85732.01561V14.12269a1.52432,1.52432,0,0,0-.21043-.9123.86254.86254,0,0,0-.72495-.27287,1.50394,1.50394,0,0,0-.77994.23418,2.4442,2.4442,0,0,0-.70119.65436,3.61992,3.61992,0,0,0-.49892.951,3.31464,3.31464,0,0,0-.18667,1.10712v2.33776q.5142,0,.85732-.01561h.13983q.23419,0,.23419.281,0,.26474-.23419.26473a.68106.68106,0,0,1-.12422-.01561q-.18733-.01629-.47583-.03869-.28815-.02341-.91162-.02376h-.06245q-.62313,0-.91977.02376-.2963.0224-.4833.03869a.695.695,0,0,1-.12422.01561q-.23418,0-.23418-.26473,0-.281.23418-.281h.15545q.34313.01629.8417.01561V9.18107q-.35839,0-.51453.00747c-.10385.00543-.21314.01357-.32717.02375a1.31489,1.31489,0,0,1-.15545.01562q-.23418,0-.23418-.281,0-.26473.23418-.26473h.15545q.34313.01629.8417.01561.14051,0,.54575-.03123c.18735-.02036.296-.03122.32718-.03122q.23418,0,.23418.281v5.19074A2.87961,2.87961,0,0,1,105.52,12.88322Z"/><path class="a" d="M117.93511,16.9906a3.12978,3.12978,0,0,1-.63875,1.05213,2.92887,2.92887,0,0,1-.951.68558,2.71884,2.71884,0,0,1-1.13019.24166,2.75846,2.75846,0,0,1-1.14581-.24166,2.89512,2.89512,0,0,1-.94284-.67743,3.18626,3.18626,0,0,1-.63943-1.06028,3.79658,3.79658,0,0,1-.2335-1.34062,3.71664,3.71664,0,0,1,.2335-1.34062,3.30431,3.30431,0,0,1,.63943-1.05213,2.755,2.755,0,0,1,.94284-.67811,2.8403,2.8403,0,0,1,1.14581-.23351,2.78641,2.78641,0,0,1,1.13834.23351,2.86232,2.86232,0,0,1,.94284.67811,3.12988,3.12988,0,0,1,.63875,1.05213,4.08856,4.08856,0,0,1,0,2.68124ZM116.509,13.48327a1.41722,1.41722,0,0,0-1.29378-.63875,1.43291,1.43291,0,0,0-1.3094.63875,4.25925,4.25925,0,0,0-.40524,2.16671,4.25753,4.25753,0,0,0,.40524,2.16671,1.43335,1.43335,0,0,0,1.3094.63943,1.41767,1.41767,0,0,0,1.29378-.63943A4.25753,4.25753,0,0,0,116.9142,15.65,4.25925,4.25925,0,0,0,116.509,13.48327Z"/><path class="a" d="M127.96565,18.20632h.1249q.23318,0,.23351.281,0,.26474-.23351.26473a.469.469,0,0,1-.10928-.01561q-.15579-.01629-.42086-.03869-.26472-.02341-.88854-.02376h-.06245q-.60786,0-.88039.02376-.27288.0224-.429.03869a.46876.46876,0,0,1-.10861.01561q-.23418,0-.23418-.26473,0-.281.23418-.281h.12422c.18735.01086.44665.01561.77926.01561V14.13831a1.56737,1.56737,0,0,0-.20229-.9123.78037.78037,0,0,0-.67064-.27288,1.27668,1.27668,0,0,0-.71681.24165,2.36968,2.36968,0,0,0-.63875.66251,3.75528,3.75528,0,0,0-.45207.9666,3.70909,3.70909,0,0,0-.17174,1.122v2.276c.34279,0,.59734-.00475.76364-.01561h.1249c.15613,0,.23351.09368.23351.281,0,.17649-.07738.26473-.23351.26473a.469.469,0,0,1-.10928-.01561q-.15579-.01629-.42086-.03869-.26472-.02341-.88854-.02376H122.65q-.62313,0-.91162.02376-.28917.0224-.47515.03869a.69419.69419,0,0,1-.1249.01561q-.23418,0-.23419-.26473,0-.281.23419-.281h.14051q.3421.01629.85732.01561V13.078c-.2498,0-.42357.00271-.52268.00747-.09842.00543-.21042.01357-.33464.02375a.97006.97006,0,0,1-.14051.01562q-.23418,0-.23419-.28035,0-.26574.23419-.2654h.14051q.3421.01629.85732.01561c.10317,0,.28034-.01018.52946-.03123.18734-.02036.30138-.03122.34347-.03122q.23316,0,.2335.281v1.29378a3.10743,3.10743,0,0,1,.84985-1.2164,1.88447,1.88447,0,0,1,1.28564-.54507,1.64,1.64,0,0,1,1.2707.4833,2.19773,2.19773,0,0,1,.522,1.32433,3.15059,3.15059,0,0,1,.87293-1.26256,1.91325,1.91325,0,0,1,1.29379-.54507,1.57558,1.57558,0,0,1,1.38745.62313,2.89113,2.89113,0,0,1,.43647,1.68341v3.56978q.51419,0,.8417-.01561h.15545q.23418,0,.23418.281,0,.26474-.23418.26473a.68791.68791,0,0,1-.12422-.01561c-.1249-.01086-.28645-.02376-.4833-.03869q-.2963-.02341-.90416-.02376h-.07806q-.60786,0-.87293.02376-.26474.0224-.42085.03869a.46907.46907,0,0,1-.10929.01561q-.23316,0-.2335-.26473,0-.281.2335-.281h.1249c.17649.01086.431.01561.76364.01561V14.13831a1.56738,1.56738,0,0,0-.20228-.9123.78038.78038,0,0,0-.67065-.27288,1.27667,1.27667,0,0,0-.7168.24165,2.381,2.381,0,0,0-.63943.66251,3.80053,3.80053,0,0,0-.45207.9666,3.72975,3.72975,0,0,0-.17106,1.122v2.276C127.5448,18.22193,127.79935,18.21718,127.96565,18.20632Z"/><path class="a" d="M135.83763,15.65a3.80113,3.80113,0,0,0,.46769,2.08119,1.496,1.496,0,0,0,1.325.70934,1.82171,1.82171,0,0,0,1.87076-1.3094.79422.79422,0,0,1,.10114-.1792.17694.17694,0,0,1,.148-.0706q.24946,0,.2498.23419a.80214.80214,0,0,1-.06245.29595,2.365,2.365,0,0,1-1.03652,1.19264,3.02607,3.02607,0,0,1-1.458.36588,2.48676,2.48676,0,0,1-1.02091-.226,2.86962,2.86962,0,0,1-.91976-.66251,3.31538,3.31538,0,0,1-.66251-1.05959,3.66011,3.66011,0,0,1-.24911-1.37185,3.73271,3.73271,0,0,1,.2335-1.33247,3.18869,3.18869,0,0,1,.63943-1.05213,2.96828,2.96828,0,0,1,.91976-.67812,2.49228,2.49228,0,0,1,1.07521-.24165,2.43019,2.43019,0,0,1,1.80831.69373,2.3511,2.3511,0,0,1,.68626,1.7221v.15612a.75967.75967,0,0,0-.01561.15545h-4.08431Q135.838,15.24508,135.83763,15.65Zm2.853-1.122a1.6955,1.6955,0,0,0,.093-.53013,1.08387,1.08387,0,0,0-.33465-.85732,1.23708,1.23708,0,0,0-.84985-.296,1.61672,1.61672,0,0,0-1.07521.36587,2.12441,2.12441,0,0,0-.59258,1.31754Z"/><path class="a" d="M69.14285,15.82923c-1.61263,1.01241-3.09333,1.97511-4.61172,2.87425a3.95263,3.95263,0,0,1-1.47083.47022,1.44755,1.44755,0,0,1-1.80266-1.49886L61.21,17.1422c-.43381.29968-.80178.57133-1.18677.81626-.83608.53189-1.654,1.10154-2.52982,1.55912a1.429,1.429,0,0,1-2.01958-.87235,5.59249,5.59249,0,0,1-.2235-2.909c.03924-.42884.10583-.85517.18564-1.4849-.35881.27759-.57334.4452-.78958.61058a4.09723,4.09723,0,0,1-3.65011,1.00262,1.49046,1.49046,0,0,1-1.16244-1.27635,1.23018,1.23018,0,0,1,.70631-1.44931c.07553.36256.14089.66417.201.96682.2087,1.05133.88518,1.46129,1.85726,1.01985A4.97172,4.97172,0,0,0,55.76715,11.168c.3877-2.56448.915-5.10792,1.38409-7.66006.09991-.54358.186-1.09109.31837-1.62693A2.89325,2.89325,0,0,1,58.35122.30029c.52152-.44658,1.10034-.40966,1.37108.20917a6.704,6.704,0,0,1,.52052,1.92294,10.87629,10.87629,0,0,1-.48377,4.48737,23.47224,23.47224,0,0,1-1.46277,3.266c-.30974.62357-.79642,1.16413-1.07027,1.79939a7.005,7.005,0,0,0-.5329,2.00229c-.114,1.07168-.10588,2.1568-.13541,3.23661a2.191,2.191,0,0,0,.0815.68914c.10773.353.311.56281.71642.32411,1.22562-.72158,2.47086-1.41151,3.67426-2.16809a4.25825,4.25825,0,0,0,.80054-.94008,4.10254,4.10254,0,0,1,.59529.20807.61626.61626,0,0,1,.368.71871,11.49744,11.49744,0,0,0-.23093,1.19673c-.02568.269-.04264.66134.11133.7908a.98523.98523,0,0,0,.80085-.01076,8.7722,8.7722,0,0,0,1.57526-.75447q1.8445-1.17029,3.63224-2.42848a3.30721,3.30721,0,0,0,.84061-.95463c.16345-.26169.25144-.53291.62807-.45617a.65179.65179,0,0,1,.59982.64376c.00945.46412-.02669.929-.03183,1.39367a4.00684,4.00684,0,0,0,.0662.50211,4.34666,4.34666,0,0,0,.92445-.36082c.90593-.63418,1.81657-1.26937,2.66034-1.98124a1.20576,1.20576,0,0,1,1.32709-.21515,19.7634,19.7634,0,0,1-3.81764,3.37885c-.31567.21131-.617.44794-.94747.6325-.86186.48127-1.43716.22554-1.71693-.83594A5.05969,5.05969,0,0,1,69.14285,15.82923ZM57.36039,9.66507c1.48886-2.56289,2.45247-5.24264,1.68643-8.28524A43.753,43.753,0,0,0,57.36039,9.66507Z"/><path class="a" d="M92.423,16.62983a22.62046,22.62046,0,0,1,7.63966-1.30481c.13406-.00241.27126.16871.40537.25795-.05866.10005-.0813.18534-.11548.19024-1.38316.19838-2.77344.35456-4.14932.59368-.93784.163-1.85816.43127-2.78182.66984a1.69766,1.69766,0,0,0-1.239,1.67013,16.23516,16.23516,0,0,1-1.48517,5.26737,6.597,6.597,0,0,1-2.20981,2.66458c-1.01375.67346-1.86215.32351-2.03369-.86349a6.36387,6.36387,0,0,1,.30713-3.3505c.16312-.40538.28417-.82761.42634-1.24148a4.54787,4.54787,0,0,1,1.46014-2.139A26.58288,26.58288,0,0,1,90.902,17.4255a.89919.89919,0,0,0,.50727-.99414c-.06236-.3949-.10515-.7929-.15659-1.18953-.35835.13835-.72557.2576-1.07334.41875a5.25612,5.25612,0,0,1-2.94781.52172A3.64475,3.64475,0,0,1,84.913,15.07876c-.61966-.68053-.7-.6747-1.37909-.04517a6.68982,6.68982,0,0,0-1.70479,2.29758,2.56488,2.56488,0,0,1-.40116.66015A.75087.75087,0,0,1,80.06,17.763a1.64754,1.64754,0,0,1-.127-.59059c-.015-.75876-.03906-1.52.00822-2.276a1.79547,1.79547,0,0,1,.351-.85551.60022.60022,0,0,1,.52938-.09252c.11519.03372.22555.2477.24954.39559.05373.33129.05223.67152.08475,1.1931.60148-.59432,1.05185-1.05616,1.52233-1.49656a3.331,3.331,0,0,1,.6961-.51722,1.5546,1.5546,0,0,1,2.02656.4273c.14716.17919.27419.375.40855.56459a1.30758,1.30758,0,0,0,2.34752-.058,11.62557,11.62557,0,0,1,.97417-1.21719,1.70891,1.70891,0,0,1,1.97352-.5321,1.81167,1.81167,0,0,1,1.23766,1.64546c.05941.51727.0189,1.04569.02984,1.569C92.37622,16.11762,92.39942,16.31259,92.423,16.62983Zm-.86179,1.36884c-.13586-.04607-.1664-.06823-.18342-.06053a6.6903,6.6903,0,0,0-4.30349,6.2861,13.21616,13.21616,0,0,0,.21446,1.81247c.05994.34689.26473.5428.605.22231a13.57565,13.57565,0,0,0,1.36883-1.33122,8.6156,8.6156,0,0,0,1.59433-3.637C91.095,20.18884,91.32876,19.086,91.56118,17.99867Zm-2.41477-3.38552.16511.18966c.29129-.20843.59431-.40317.8655-.63507.06637-.05676.02856-.23517.03866-.35765-.10632.00421-.25279-.03485-.31207.02006C89.63766,14.07655,89.39651,14.34967,89.14641,14.61315Z"/><path class="a" d="M75.99521,16.4462c.2124-.86486.42685-1.81834.69573-2.75623a.63772.63772,0,0,1,.49313-.359c.30473.01886.23352.28809.19528.52693-.18243,1.13912-.33673,2.28277-.52216,3.42137-.02014.12363-.16781.30513-.27185.31638a.46483.46483,0,0,1-.39067-.20287A5.83418,5.83418,0,0,1,75.99521,16.4462Z"/><path class="a" d="M65.09812,9.29331a.91791.91791,0,0,1-.05756.23057c-.41408.62319-.82215,1.25093-1.25921,1.85778-.07957.11048-.34005.224-.415.17624-.14512-.09246-.34109-.34825-.30029-.44975a12.93186,12.93186,0,0,1,.93125-1.95566c.10435-.16992.53358-.17836.81479-.18206C64.91391,8.96909,65.01876,9.19822,65.09812,9.29331Z"/><path class="a" d="M78.15763,9.78408c.448.86319.25006,1.28677-.46512,1.25252Z"/></svg>