<?xml version="1.0" encoding="UTF-8"?>
<svg width="197px" height="12px" viewBox="0 0 197 12" version="1.1" xmlns="http://www.w3.org/2000/svg" xmlns:xlink="http://www.w3.org/1999/xlink">
    <!-- Generator: Sketch 47.1 (45422) - http://www.bohemiancoding.com/sketch -->
    <title>i-anthro-logo</title>
    <desc>Created with Sketch.</desc>
    <defs></defs>
    <g id="Header" stroke="none" stroke-width="1" fill="none" fill-rule="evenodd">
        <g id="Breakpoints" transform="translate(-87.000000, -432.000000)" fill="#010101">
            <g id="i-anthro-logo" transform="translate(87.000000, 432.000000)">
                <g id="icon-anthro-logo">
                    <path d="M3.7800738,8.18823529 L2.6896679,10.5882353 C3.41660517,10.5882353 3.70738007,10.5882353 3.99815498,10.5882353 C4.21623616,10.5882353 4.43431734,10.8 4.43431734,11.0823529 C4.43431734,11.3647059 4.21623616,11.5764706 3.99815498,11.5764706 C3.70738007,11.5764706 3.56199262,11.4352941 2.18081181,11.4352941 C0.799630996,11.4352941 0.654243542,11.5764706 0.436162362,11.5764706 C0.218081181,11.5764706 0,11.4352941 0,11.0823529 C0,10.8 0.218081181,10.5882353 0.436162362,10.5882353 C0.726937269,10.5882353 0.94501845,10.5882353 1.67195572,10.5882353 L6.25166052,0.352941176 C6.32435424,0.141176471 6.4697417,0 6.68782288,0 C6.97859779,0 7.05129151,0.141176471 7.12398524,0.352941176 L11.6309963,10.5882353 C12.503321,10.5882353 12.6487085,10.5882353 12.8667897,10.5882353 C13.0848708,10.5882353 13.302952,10.8 13.302952,11.0823529 C13.302952,11.3647059 13.0848708,11.5764706 12.8667897,11.5764706 C12.5760148,11.5764706 12.503321,11.4352941 10.6132841,11.4352941 L10.6132841,11.4352941 C8.79594096,11.4352941 8.65055351,11.5764706 8.3597786,11.5764706 C8.14169742,11.5764706 7.92361624,11.4352941 7.92361624,11.0823529 C7.92361624,10.8 8.14169742,10.5882353 8.3597786,10.5882353 C8.65055351,10.5882353 8.72324723,10.5882353 9.52287823,10.5882353 L8.50516605,8.25882353 L3.7800738,8.25882353 L3.7800738,8.18823529 Z M8.06900369,7.27058824 L6.17896679,2.82352941 L4.21623616,7.27058824 L8.06900369,7.27058824 Z" id="Shape" fill-rule="nonzero"></path>
                    <path d="M19.8453875,10.5882353 C21.0084871,10.5882353 21.1538745,10.5882353 21.4446494,10.5882353 C21.6627306,10.5882353 21.8808118,10.8 21.8808118,11.0823529 C21.8808118,11.3647059 21.6627306,11.5764706 21.4446494,11.5764706 C21.1538745,11.5764706 21.0811808,11.4352941 19.4092251,11.4352941 L19.3365314,11.4352941 C17.6645756,11.4352941 17.5918819,11.5764706 17.301107,11.5764706 C17.0830258,11.5764706 16.8649446,11.4352941 16.8649446,11.0823529 C16.8649446,10.8 17.0830258,10.5882353 17.301107,10.5882353 C17.5918819,10.5882353 17.7372694,10.5882353 18.900369,10.5882353 L18.900369,1.05882353 C17.7372694,1.05882353 17.5918819,1.05882353 17.301107,1.05882353 C17.0830258,1.05882353 16.8649446,0.917647059 16.8649446,0.564705882 C16.8649446,0.282352941 17.0830258,0.0705882353 17.301107,0.0705882353 C17.5918819,0.0705882353 17.7372694,0.211764706 19.3365314,0.211764706 L19.6273063,0.211764706 C19.9180812,0.211764706 20.2088561,0.211764706 20.4269373,0.211764706 C20.7904059,0.211764706 20.9357934,0.352941176 21.299262,0.917647059 L26.4605166,8.04705882 L26.4605166,1.05882353 C25.297417,1.05882353 25.1520295,1.05882353 24.8612546,1.05882353 C24.6431734,1.05882353 24.4250923,0.917647059 24.4250923,0.564705882 C24.4250923,0.282352941 24.6431734,0.0705882353 24.8612546,0.0705882353 C25.1520295,0.0705882353 25.297417,0.211764706 26.896679,0.211764706 L26.9693727,0.211764706 C28.6413284,0.211764706 28.7140221,0.0705882353 29.004797,0.0705882353 C29.2228782,0.0705882353 29.4409594,0.282352941 29.4409594,0.564705882 C29.4409594,0.847058824 29.2228782,1.05882353 29.004797,1.05882353 C28.7140221,1.05882353 28.5686347,1.05882353 27.4055351,1.05882353 L27.4055351,11.0823529 C27.4055351,11.5764706 27.1147601,11.7176471 26.896679,11.7176471 C26.6059041,11.7176471 26.5332103,11.5764706 26.2424354,11.3647059 L19.8453875,2.32941176 L19.8453875,10.5882353 L19.8453875,10.5882353 Z" id="Shape" fill-rule="nonzero"></path>
                    <path d="M43.1800738,3.88235294 C42.8892989,3.88235294 42.6712177,3.67058824 42.6712177,3.45882353 C42.6712177,1.48235294 42.2350554,0.988235294 40.6357934,0.988235294 L39.4726937,0.988235294 L39.4726937,10.5176471 C40.8538745,10.5176471 40.999262,10.5176471 41.2900369,10.5176471 C41.5081181,10.5176471 41.7261993,10.7294118 41.7261993,11.0117647 C41.7261993,11.2941176 41.5081181,11.5058824 41.2900369,11.5058824 C40.999262,11.5058824 40.8538745,11.3647059 38.5276753,11.3647059 L38.3822878,11.3647059 C36.0560886,11.3647059 35.9107011,11.5058824 35.6199262,11.5058824 C35.401845,11.5058824 35.1837638,11.3647059 35.1837638,11.0117647 C35.1837638,10.7294118 35.401845,10.5176471 35.6199262,10.5176471 C35.9107011,10.5176471 36.0560886,10.5176471 37.4372694,10.5176471 L37.4372694,0.988235294 L36.2741697,0.988235294 C34.602214,0.988235294 34.1660517,1.48235294 34.1660517,3.45882353 C34.1660517,3.67058824 34.0206642,3.88235294 33.7298893,3.88235294 C33.4391144,3.88235294 33.2937269,3.67058824 33.2937269,3.45882353 C33.2937269,3.17647059 33.4391144,2.4 33.4391144,1.27058824 L33.4391144,0.564705882 C33.4391144,0.282352941 33.6571956,0.0705882353 33.8752768,0.0705882353 C34.0933579,0.0705882353 35.0383764,0.211764706 35.4745387,0.211764706 L41.5808118,0.211764706 C42.0169742,0.211764706 42.8892989,0.0705882353 43.1073801,0.0705882353 C43.3254613,0.0705882353 43.5435424,0.282352941 43.5435424,0.564705882 L43.5435424,1.27058824 C43.4708487,2.47058824 43.6162362,3.24705882 43.6162362,3.52941176 C43.6162362,3.67058824 43.4708487,3.88235294 43.1800738,3.88235294 Z" id="Shape" fill-rule="nonzero"></path>
                    <path d="M52.4121771,6.07058824 L52.4121771,10.5882353 C53.2845018,10.5882353 53.4298893,10.5882353 53.7206642,10.5882353 C53.9387454,10.5882353 54.1568266,10.8 54.1568266,11.0823529 C54.1568266,11.3647059 53.9387454,11.5764706 53.7206642,11.5764706 C53.4298893,11.5764706 53.1391144,11.4352941 51.4671587,11.4352941 L51.3217712,11.4352941 C49.0682657,11.4352941 48.8501845,11.5764706 48.5594096,11.5764706 C48.3413284,11.5764706 48.1232472,11.4352941 48.1232472,11.0823529 C48.1232472,10.8 48.3413284,10.5882353 48.5594096,10.5882353 C48.8501845,10.5882353 48.995572,10.5882353 50.3767528,10.5882353 L50.3767528,1.05882353 C48.995572,1.05882353 48.8501845,1.05882353 48.5594096,1.05882353 C48.3413284,1.05882353 48.1232472,0.917647059 48.1232472,0.564705882 C48.1232472,0.282352941 48.3413284,0.0705882353 48.5594096,0.0705882353 C48.8501845,0.0705882353 48.995572,0.211764706 51.3217712,0.211764706 L51.4671587,0.211764706 C53.2845018,0.211764706 53.4298893,0.0705882353 53.7206642,0.0705882353 C53.9387454,0.0705882353 54.1568266,0.282352941 54.1568266,0.564705882 C54.1568266,0.847058824 53.9387454,1.05882353 53.7206642,1.05882353 C53.4298893,1.05882353 53.1391144,1.05882353 52.4121771,1.05882353 L52.4121771,5.08235294 L57.4280443,5.08235294 L57.4280443,1.05882353 C56.5557196,1.05882353 56.4103321,1.05882353 56.1195572,1.05882353 C55.901476,1.05882353 55.6833948,0.917647059 55.6833948,0.564705882 C55.6833948,0.282352941 55.901476,0.0705882353 56.1195572,0.0705882353 C56.4103321,0.0705882353 56.5557196,0.211764706 58.3730627,0.211764706 L58.5184502,0.211764706 C60.8446494,0.211764706 60.9900369,0.0705882353 61.2808118,0.0705882353 C61.498893,0.0705882353 61.7169742,0.282352941 61.7169742,0.564705882 C61.7169742,0.847058824 61.498893,1.05882353 61.2808118,1.05882353 C60.9900369,1.05882353 60.8446494,1.05882353 59.4634686,1.05882353 L59.4634686,10.5882353 C60.8446494,10.5882353 60.9900369,10.5882353 61.2808118,10.5882353 C61.498893,10.5882353 61.7169742,10.8 61.7169742,11.0823529 C61.7169742,11.3647059 61.498893,11.5764706 61.2808118,11.5764706 C60.9900369,11.5764706 60.8446494,11.4352941 58.5184502,11.4352941 L58.3730627,11.4352941 C56.5557196,11.4352941 56.3376384,11.5764706 56.1195572,11.5764706 C55.901476,11.5764706 55.6833948,11.4352941 55.6833948,11.0823529 C55.6833948,10.8 55.901476,10.5882353 56.1195572,10.5882353 C56.4103321,10.5882353 56.6284133,10.5882353 57.4280443,10.5882353 L57.4280443,6.07058824 L52.4121771,6.07058824 Z" id="Shape" fill-rule="nonzero"></path>
                    <path d="M76.7645756,8.47058824 C76.7645756,9.6 76.6918819,9.74117647 76.6918819,10.3058824 C76.6918819,10.7294118 76.8372694,11.0117647 77.200738,11.0117647 C77.5642066,11.0117647 77.6369004,10.8 77.6369004,10.4470588 C77.6369004,10.2352941 77.8549815,10.0235294 78.0730627,10.0235294 C78.2911439,10.0235294 78.5092251,10.2352941 78.5092251,10.4470588 C78.5092251,11.2941176 77.7095941,11.7176471 77.1280443,11.7176471 C75.7468635,11.7176471 74.801845,11.0823529 74.801845,8.47058824 C74.801845,6.63529412 74.5110701,5.92941176 72.402952,5.92941176 L71.3125461,5.92941176 L71.3125461,10.5882353 C72.6937269,10.5882353 72.8391144,10.5882353 73.1298893,10.5882353 C73.3479705,10.5882353 73.5660517,10.8 73.5660517,11.0823529 C73.5660517,11.3647059 73.3479705,11.5764706 73.1298893,11.5764706 C72.8391144,11.5764706 72.6937269,11.4352941 70.3675277,11.4352941 L70.2221402,11.4352941 C67.9686347,11.4352941 67.7505535,11.5764706 67.4597786,11.5764706 C67.2416974,11.5764706 67.0236162,11.4352941 67.0236162,11.0823529 C67.0236162,10.8 67.2416974,10.5882353 67.4597786,10.5882353 C67.7505535,10.5882353 67.895941,10.5882353 69.2771218,10.5882353 L69.2771218,1.05882353 C67.895941,1.05882353 67.7505535,1.05882353 67.4597786,1.05882353 C67.2416974,1.05882353 67.0236162,0.917647059 67.0236162,0.564705882 C67.0236162,0.282352941 67.2416974,0.0705882353 67.4597786,0.0705882353 C67.7505535,0.0705882353 67.895941,0.211764706 70.0767528,0.211764706 C70.6583026,0.211764706 71.6760148,0.141176471 72.402952,0.141176471 C75.4560886,0.141176471 76.7645756,1.34117647 76.7645756,2.82352941 C76.7645756,4.09411765 75.4560886,5.15294118 74.0749077,5.43529412 C75.8922509,5.85882353 76.7645756,7.2 76.7645756,8.47058824 Z M72.1121771,1.05882353 C71.8940959,1.05882353 71.3125461,1.05882353 71.3125461,1.05882353 L71.3125461,5.22352941 L71.9667897,5.22352941 C73.7841328,5.22352941 74.7291513,4.65882353 74.7291513,2.96470588 C74.7291513,1.62352941 74.0749077,1.05882353 72.1121771,1.05882353 Z" id="Shape" fill-rule="nonzero"></path>
                    <path d="M87.8867159,11.6470588 C84.9789668,11.6470588 82.4346863,9.31764706 82.4346863,5.85882353 C82.4346863,2.4 84.9062731,0 87.8867159,0 C90.8671587,0 93.3387454,2.32941176 93.3387454,5.85882353 C93.2660517,9.31764706 90.7944649,11.6470588 87.8867159,11.6470588 Z M87.8867159,0.917647059 C85.8512915,0.917647059 84.7608856,2.11764706 84.7608856,5.85882353 C84.7608856,9.6 85.8512915,10.8 87.8867159,10.8 C89.9221402,10.8 91.0125461,9.6 91.0125461,5.85882353 C91.0125461,2.11764706 89.9221402,0.917647059 87.8867159,0.917647059 Z" id="Shape" fill-rule="nonzero"></path>
                    <path d="M102.78893,10.5882353 C104.170111,10.5882353 104.315498,10.5882353 104.606273,10.5882353 C104.824354,10.5882353 105.042435,10.8 105.042435,11.0823529 C105.042435,11.3647059 104.824354,11.5764706 104.606273,11.5764706 C104.315498,11.5764706 104.170111,11.4352941 101.843911,11.4352941 L101.698524,11.4352941 C99.4450185,11.4352941 99.2269373,11.5764706 98.9361624,11.5764706 C98.7180812,11.5764706 98.5,11.4352941 98.5,11.0823529 C98.5,10.8 98.7180812,10.5882353 98.9361624,10.5882353 C99.2269373,10.5882353 99.3723247,10.5882353 100.753506,10.5882353 L100.753506,1.05882353 C99.3723247,1.05882353 99.2269373,1.05882353 98.9361624,1.05882353 C98.7180812,1.05882353 98.5,0.917647059 98.5,0.564705882 C98.5,0.211764706 98.7180812,0.0705882353 98.9361624,0.0705882353 C99.2269373,0.0705882353 99.3723247,0.211764706 101.407749,0.211764706 C102.352768,0.211764706 102.78893,0.211764706 103.806642,0.211764706 C106.932472,0.211764706 108.604428,1.62352941 108.604428,3.52941176 C108.604428,5.50588235 106.932472,6.91764706 103.806642,6.91764706 C103.443173,6.91764706 103.079705,6.91764706 102.716236,6.91764706 L102.78893,10.5882353 Z M102.78893,6.21176471 C102.78893,6.21176471 103.515867,6.21176471 103.879336,6.21176471 C105.91476,6.21176471 106.641697,5.50588235 106.641697,3.6 C106.641697,1.76470588 105.91476,1.05882353 103.879336,1.05882353 C103.515867,1.05882353 102.78893,1.05882353 102.78893,1.05882353 L102.78893,6.21176471 Z" id="Shape" fill-rule="nonzero"></path>
                    <path d="M118.272694,11.6470588 C115.364945,11.6470588 112.820664,9.31764706 112.820664,5.85882353 C112.820664,2.4 115.292251,0 118.272694,0 C121.253137,0 123.724723,2.32941176 123.724723,5.85882353 C123.724723,9.31764706 121.253137,11.6470588 118.272694,11.6470588 Z M118.272694,0.917647059 C116.237269,0.917647059 115.07417,2.11764706 115.07417,5.85882353 C115.07417,9.6 116.164576,10.8 118.272694,10.8 C120.380812,10.8 121.398524,9.6 121.398524,5.85882353 C121.398524,2.11764706 120.308118,0.917647059 118.272694,0.917647059 Z" id="Shape" fill-rule="nonzero"></path>
                    <path d="M136.082657,10.6588235 C137.681919,10.6588235 138.118081,10.1647059 138.118081,8.18823529 C138.118081,7.97647059 138.263469,7.76470588 138.626937,7.76470588 C138.917712,7.76470588 139.0631,7.97647059 139.0631,8.18823529 C139.0631,8.47058824 138.917712,9.17647059 138.917712,10.3058824 L138.917712,11.0823529 C138.917712,11.3647059 138.699631,11.5764706 138.48155,11.5764706 C138.263469,11.5764706 137.31845,11.4352941 136.882288,11.4352941 L132.084502,11.3647059 C129.830996,11.3647059 129.612915,11.5058824 129.32214,11.5058824 C129.104059,11.5058824 128.885978,11.3647059 128.885978,11.0117647 C128.885978,10.7294118 129.104059,10.5176471 129.32214,10.5176471 C129.612915,10.5176471 129.758303,10.5176471 131.139483,10.5176471 L131.139483,1.05882353 C129.758303,1.05882353 129.612915,1.05882353 129.32214,1.05882353 C129.104059,1.05882353 128.885978,0.917647059 128.885978,0.564705882 C128.885978,0.211764706 129.104059,0.0705882353 129.32214,0.0705882353 C129.612915,0.0705882353 129.758303,0.211764706 132.084502,0.211764706 L132.229889,0.211764706 C134.483395,0.211764706 134.701476,0.0705882353 134.992251,0.0705882353 C135.210332,0.0705882353 135.428413,0.282352941 135.428413,0.564705882 C135.428413,0.847058824 135.210332,1.05882353 134.992251,1.05882353 C134.701476,1.05882353 134.556089,1.05882353 133.174908,1.05882353 L133.174908,10.5882353 L136.082657,10.5882353 L136.082657,10.6588235 Z" id="Shape" fill-rule="nonzero"></path>
                    <path d="M148.513284,11.6470588 C145.605535,11.6470588 143.061255,9.31764706 143.061255,5.85882353 C143.061255,2.4 145.532841,0 148.513284,0 C151.493727,0 153.965314,2.32941176 153.965314,5.85882353 C153.965314,9.31764706 151.493727,11.6470588 148.513284,11.6470588 Z M148.513284,0.917647059 C146.47786,0.917647059 145.31476,2.11764706 145.31476,5.85882353 C145.31476,9.6 146.405166,10.8 148.513284,10.8 C150.548708,10.8 151.639114,9.6 151.639114,5.85882353 C151.711808,2.11764706 150.621402,0.917647059 148.513284,0.917647059 Z" id="Shape" fill-rule="nonzero"></path>
                    <path d="M159.271956,5.85882353 C159.271956,2.4 161.743542,0 164.723985,0 C166.323247,0 167.122878,0.494117647 167.777122,1.05882353 C167.922509,0.917647059 167.995203,0.847058824 167.995203,0.635294118 C167.995203,0.423529412 167.995203,0.141176471 168.431365,0.141176471 C168.794834,0.141176471 168.867528,0.352941176 168.867528,0.635294118 L168.867528,4.02352941 C168.867528,4.23529412 168.867528,4.51764706 168.431365,4.51764706 C167.995203,4.51764706 167.995203,4.23529412 167.995203,4.02352941 C167.995203,2.32941176 166.614022,0.917647059 164.869373,0.917647059 C162.688561,0.917647059 161.525461,2.25882353 161.525461,5.85882353 C161.525461,9.45882353 162.688561,10.8 164.869373,10.8 C166.105166,10.8 167.268266,10.3058824 167.268266,7.69411765 C166.323247,7.69411765 166.17786,7.69411765 165.887085,7.69411765 C165.669004,7.69411765 165.450923,7.48235294 165.450923,7.2 C165.450923,6.91764706 165.669004,6.70588235 165.887085,6.70588235 C166.17786,6.70588235 166.250554,6.84705882 168.14059,6.84705882 L168.285978,6.84705882 C170.248708,6.84705882 170.321402,6.70588235 170.539483,6.70588235 C170.757565,6.70588235 170.975646,6.91764706 170.975646,7.2 C170.975646,7.48235294 170.757565,7.69411765 170.539483,7.69411765 C170.248708,7.69411765 170.103321,7.69411765 169.230996,7.69411765 C169.230996,8.54117647 168.940221,11.6470588 164.651292,11.6470588 C161.743542,11.6470588 159.271956,9.31764706 159.271956,5.85882353 Z" id="Shape" fill-rule="nonzero"></path>
                    <path d="M181.298155,10.5176471 C181.516236,10.5176471 181.734317,10.7294118 181.734317,11.0117647 C181.734317,11.2941176 181.516236,11.5058824 181.298155,11.5058824 C181.00738,11.5058824 180.861993,11.3647059 178.535793,11.3647059 L178.390406,11.3647059 C176.1369,11.3647059 175.918819,11.5058824 175.628044,11.5058824 C175.409963,11.5058824 175.191882,11.3647059 175.191882,11.0117647 C175.191882,10.7294118 175.409963,10.5176471 175.628044,10.5176471 C175.918819,10.5176471 176.064207,10.5176471 177.445387,10.5176471 L177.445387,1.05882353 C176.064207,1.05882353 175.918819,1.05882353 175.628044,1.05882353 C175.409963,1.05882353 175.191882,0.917647059 175.191882,0.564705882 C175.191882,0.211764706 175.409963,0.0705882353 175.628044,0.0705882353 C175.918819,0.0705882353 176.064207,0.211764706 178.390406,0.211764706 L178.535793,0.211764706 C180.789299,0.211764706 181.00738,0.0705882353 181.298155,0.0705882353 C181.516236,0.0705882353 181.734317,0.282352941 181.734317,0.564705882 C181.734317,0.847058824 181.516236,1.05882353 181.298155,1.05882353 C181.00738,1.05882353 180.861993,1.05882353 179.480812,1.05882353 L179.480812,10.5882353 C180.861993,10.5882353 181.00738,10.5176471 181.298155,10.5176471 Z" id="Shape" fill-rule="nonzero"></path>
                    <path d="M192.347601,5.15294118 C193.001845,5.15294118 193.583395,4.65882353 193.583395,3.81176471 C193.583395,3.6 193.656089,3.31764706 193.946863,3.31764706 C194.237638,3.31764706 194.237638,3.52941176 194.237638,3.81176471 C194.237638,4.09411765 194.164945,4.44705882 194.164945,5.43529412 L194.164945,5.71764706 C194.164945,6.70588235 194.237638,7.05882353 194.237638,7.34117647 C194.237638,7.55294118 194.237638,7.83529412 193.946863,7.83529412 C193.656089,7.83529412 193.583395,7.62352941 193.583395,7.34117647 C193.583395,6.56470588 193.001845,6 192.347601,6 L191.402583,6 L191.402583,10.6588235 L194.019557,10.6588235 C195.691513,10.6588235 196.054982,10.1647059 196.054982,8.18823529 C196.054982,7.97647059 196.200369,7.76470588 196.563838,7.76470588 C196.854613,7.76470588 197,7.97647059 197,8.18823529 C197,8.47058824 196.854613,9.17647059 196.854613,10.3058824 L196.854613,11.0823529 C196.854613,11.3647059 196.636531,11.5764706 196.41845,11.5764706 C196.200369,11.5764706 195.255351,11.4352941 194.819188,11.4352941 L190.239483,11.3647059 C187.985978,11.3647059 187.767897,11.5058824 187.477122,11.5058824 C187.259041,11.5058824 187.040959,11.3647059 187.040959,11.0117647 C187.040959,10.7294118 187.259041,10.5176471 187.477122,10.5176471 C187.767897,10.5176471 187.913284,10.5176471 189.294465,10.5176471 L189.294465,1.05882353 C187.913284,1.05882353 187.767897,1.05882353 187.477122,1.05882353 C187.259041,1.05882353 187.040959,0.917647059 187.040959,0.564705882 C187.040959,0.282352941 187.259041,0.0705882353 187.477122,0.0705882353 C187.767897,0.0705882353 187.913284,0.211764706 190.239483,0.211764706 L194.310332,0.211764706 C194.746494,0.211764706 195.618819,0.0705882353 195.909594,0.0705882353 C196.127675,0.0705882353 196.345756,0.282352941 196.345756,0.564705882 L196.345756,1.27058824 C196.345756,2.4 196.491144,3.17647059 196.491144,3.45882353 C196.491144,3.67058824 196.345756,3.88235294 196.054982,3.88235294 C195.764207,3.88235294 195.546125,3.67058824 195.546125,3.45882353 C195.546125,1.48235294 195.109963,0.988235294 193.510701,0.988235294 L191.329889,0.988235294 L191.329889,5.15294118 L192.347601,5.15294118 L192.347601,5.15294118 Z" id="Shape" fill-rule="nonzero"></path>
                </g>
            </g>
        </g>
    </g>
</svg>